<svg xmlns="http://www.w3.org/2000/svg" xmlns:xlink="http://www.w3.org/1999/xlink" preserveAspectRatio="xMidYMid" width="40" height="64" viewBox="0 0 40 64">
  <defs>
    <style>

      .cls-3 {
        fill: #000000;
      }
    </style>
  </defs>
  <g id="group-24svg">
    <path d="M31.072,62.998 C30.688,62.998 30.305,62.852 30.012,62.559 C30.012,62.559 0.727,33.273 0.727,33.273 C0.252,32.800 -0.009,32.169 -0.009,31.499 C-0.009,30.828 0.252,30.197 0.727,29.724 C0.727,29.724 30.012,0.437 30.012,0.437 C30.598,-0.148 31.547,-0.148 32.133,0.437 C32.719,1.023 32.719,1.973 32.133,2.559 C32.133,2.559 3.194,31.499 3.194,31.499 C3.194,31.499 32.133,60.437 32.133,60.437 C32.719,61.023 32.719,61.973 32.133,62.559 C31.840,62.852 31.456,62.998 31.072,62.998 Z" id="path-1" class="cls-3" fill-rule="evenodd"/>
    <path d="M37.929,56.210 C37.545,56.210 37.161,56.063 36.868,55.771 C36.868,55.771 13.656,32.559 13.656,32.559 C13.375,32.277 13.217,31.895 13.217,31.498 C13.217,31.101 13.375,30.719 13.656,30.437 C13.656,30.437 36.868,7.227 36.868,7.227 C37.454,6.641 38.403,6.641 38.989,7.227 C39.575,7.812 39.575,8.762 38.989,9.348 C38.989,9.348 16.838,31.498 16.838,31.498 C16.838,31.498 38.989,53.649 38.989,53.649 C39.575,54.235 39.575,55.185 38.989,55.771 C38.696,56.063 38.312,56.210 37.929,56.210 Z" id="path-2" class="cls-3" fill-rule="evenodd"/>
  </g>
</svg>
