<svg xmlns="http://www.w3.org/2000/svg" xmlns:xlink="http://www.w3.org/1999/xlink" preserveAspectRatio="xMidYMid" width="64" height="61" viewBox="0 0 64 61">
  <defs>
    <style>

      .cls-3 {
        fill: #000000;
      }

      .cls-6 {
        fill: #ffffff;
      }
    </style>
  </defs>
  <g id="group-28svg">
    <path d="M62.073,32.458 C62.073,32.458 1.073,32.458 1.073,32.458 C0.245,32.458 -0.000,31.786 -0.000,30.957 C-0.000,30.957 -0.000,26.759 -0.000,26.759 C-0.000,24.878 1.451,22.451 3.445,22.451 C3.445,22.451 60.445,22.451 60.445,22.451 C62.477,22.451 64.000,24.670 64.000,26.759 C64.000,26.759 64.000,30.957 64.000,30.957 C64.000,31.786 62.901,32.458 62.073,32.458 ZM3.000,29.456 C3.000,29.456 61.000,29.456 61.000,29.456 C61.000,29.456 61.000,26.759 61.000,26.759 C61.000,26.241 60.398,25.686 60.250,25.453 C60.250,25.453 3.445,25.453 3.445,25.453 C3.182,25.549 3.000,26.385 3.000,26.760 C3.000,26.760 3.000,29.456 3.000,29.456 Z" id="path-1" class="cls-3" fill-rule="evenodd"/>
    <path d="M8.000,58.976 C8.000,59.806 7.328,60.477 6.500,60.477 C6.500,60.477 1.500,60.477 1.500,60.477 C0.672,60.477 -0.000,59.806 -0.000,58.976 C-0.000,58.976 -0.000,30.957 -0.000,30.957 C-0.000,30.128 0.672,29.456 1.500,29.456 C1.500,29.456 6.500,29.456 6.500,29.456 C7.328,29.456 8.000,30.128 8.000,30.957 C8.000,30.957 8.000,58.976 8.000,58.976 ZM3.000,57.475 C3.000,57.475 5.000,57.475 5.000,57.475 C5.000,57.475 5.000,32.458 5.000,32.458 C5.000,32.458 3.000,32.458 3.000,32.458 C3.000,32.458 3.000,57.475 3.000,57.475 Z" id="path-2" class="cls-3" fill-rule="evenodd"/>
    <path d="M64.000,58.976 C64.000,59.806 63.328,60.477 62.500,60.477 C62.500,60.477 56.500,60.477 56.500,60.477 C55.672,60.477 55.000,59.806 55.000,58.976 C55.000,58.976 55.000,30.957 55.000,30.957 C55.000,30.128 55.672,29.456 56.500,29.456 C56.500,29.456 62.500,29.456 62.500,29.456 C63.328,29.456 64.000,30.128 64.000,30.957 C64.000,30.957 64.000,58.976 64.000,58.976 ZM58.000,57.475 C58.000,57.475 61.000,57.475 61.000,57.475 C61.000,57.475 61.000,32.458 61.000,32.458 C61.000,32.458 58.000,32.458 58.000,32.458 C58.000,32.458 58.000,57.475 58.000,57.475 Z" id="path-3" class="cls-3" fill-rule="evenodd"/>
    <path d="M6.111,23.452 C6.111,23.452 31.529,40.720 31.529,40.720 C34.301,42.508 37.942,42.043 40.273,39.711 C40.273,39.711 56.445,23.452 56.445,23.452 C56.445,23.452 6.111,23.452 6.111,23.452 Z" id="path-4" class="cls-6" fill-rule="evenodd"/>
    <path d="M35.105,44.017 C35.105,44.017 35.105,44.017 35.104,44.017 C33.536,44.017 32.019,43.573 30.717,42.733 C30.717,42.733 5.261,25.188 5.261,25.188 C4.720,24.816 4.484,24.134 4.679,23.507 C4.874,22.879 5.454,22.451 6.111,22.451 C6.111,22.451 56.445,22.451 56.445,22.451 C57.051,22.451 57.596,22.815 57.829,23.374 C58.062,23.932 57.937,24.577 57.513,25.007 C57.513,25.007 41.341,41.390 41.341,41.390 C39.671,43.062 37.400,44.017 35.105,44.017 ZM10.934,25.453 C10.934,25.453 32.381,40.235 32.381,40.235 C33.159,40.736 34.114,41.015 35.105,41.015 C35.105,41.015 35.105,41.015 35.105,41.015 C36.610,41.015 38.107,40.381 39.213,39.274 C39.213,39.274 52.855,25.453 52.855,25.453 C52.855,25.453 10.934,25.453 10.934,25.453 Z" id="path-5" class="cls-3" fill-rule="evenodd"/>
    <path d="M39.417,12.216 C38.810,12.216 38.225,12.053 37.714,11.760 C37.201,12.053 36.614,12.216 36.007,12.216 C34.092,12.216 32.534,10.654 32.534,8.735 C32.534,8.559 32.548,8.384 32.573,8.212 C31.695,7.579 31.131,6.546 31.131,5.369 C31.131,3.498 32.602,1.964 34.444,1.868 C35.024,0.754 36.188,-0.010 37.527,-0.010 C38.867,-0.010 40.032,0.755 40.611,1.871 C42.394,1.996 43.806,3.488 43.806,5.306 C43.806,6.274 43.396,7.162 42.734,7.793 C42.824,8.101 42.871,8.424 42.871,8.754 C42.871,10.663 41.321,12.216 39.417,12.216 ZM37.718,8.441 C37.720,8.441 37.721,8.441 37.723,8.441 C38.266,8.441 38.765,8.619 39.028,9.093 C39.060,9.150 39.181,9.273 39.417,9.273 C39.667,9.273 39.871,9.037 39.871,8.784 C39.871,8.600 39.758,8.468 39.690,8.415 C39.219,8.040 39.016,7.411 39.176,6.831 C39.337,6.249 39.829,5.818 40.426,5.738 C40.643,5.710 40.806,5.523 40.806,5.307 C40.806,5.005 40.534,4.728 40.178,4.920 C39.700,5.166 39.130,5.140 38.677,4.848 C38.226,4.557 37.964,4.047 37.991,3.510 C37.992,3.491 37.995,3.459 37.998,3.426 C37.976,3.183 37.772,2.992 37.527,2.992 C37.283,2.992 37.081,3.181 37.057,3.421 C37.060,3.453 37.062,3.482 37.064,3.512 C37.099,4.057 36.836,4.578 36.376,4.872 C35.919,5.168 35.335,5.189 34.854,4.928 C34.467,4.722 34.131,5.019 34.131,5.369 C34.131,5.643 34.345,5.863 34.618,5.868 C35.212,5.883 35.740,6.246 35.969,6.794 C36.196,7.342 36.079,7.973 35.670,8.403 C35.608,8.469 35.534,8.579 35.534,8.735 C35.534,8.999 35.746,9.214 36.007,9.214 C36.253,9.214 36.379,9.144 36.411,9.085 C36.678,8.613 37.177,8.441 37.718,8.441 Z" id="path-6" class="cls-3" fill-rule="evenodd"/>
    <path d="M38.538,17.544 C38.111,17.544 37.688,17.364 37.392,17.012 C34.690,13.814 36.239,9.383 36.307,9.195 C36.587,8.415 37.445,8.012 38.226,8.291 C39.003,8.570 39.408,9.427 39.131,10.206 C39.105,10.281 38.120,13.224 39.683,15.075 C40.218,15.708 40.138,16.655 39.505,17.190 C39.224,17.428 38.880,17.544 38.538,17.544 Z" id="path-7" class="cls-3" fill-rule="evenodd"/>
    <path d="M40.183,24.453 C40.183,24.453 36.183,24.453 36.183,24.453 C33.555,24.453 32.000,22.656 32.000,20.274 C32.000,20.274 32.000,15.947 32.000,15.947 C32.000,15.118 32.245,14.446 33.073,14.446 C33.073,14.446 43.073,14.446 43.073,14.446 C43.901,14.446 45.000,15.118 45.000,15.947 C45.000,15.947 45.000,20.274 45.000,20.274 C45.000,22.695 42.727,24.453 40.183,24.453 ZM35.000,17.448 C35.000,17.448 35.000,20.274 35.000,20.274 C35.000,21.204 35.626,21.450 36.183,21.450 C36.183,21.450 40.183,21.450 40.183,21.450 C40.702,21.450 42.000,21.298 42.000,20.274 C42.000,20.274 42.000,17.448 42.000,17.448 C42.000,17.448 35.000,17.448 35.000,17.448 Z" id="path-8" class="cls-3" fill-rule="evenodd"/>
  </g>
</svg>
