<svg xmlns="http://www.w3.org/2000/svg" xmlns:xlink="http://www.w3.org/1999/xlink" preserveAspectRatio="xMidYMid" width="58" height="64" viewBox="0 0 58 64">
  <defs>
    <style>

      .cls-3 {
        fill: #000000;
      }
    </style>
  </defs>
  <g id="group-11svg">
    <path d="M29.910,55.131 C19.174,55.131 10.438,46.396 10.438,35.660 C10.438,24.923 19.174,16.188 29.910,16.188 C40.646,16.188 49.382,24.923 49.382,35.660 C49.382,46.396 40.646,55.131 29.910,55.131 ZM29.910,19.188 C20.827,19.188 13.438,26.577 13.438,35.660 C13.438,44.742 20.827,52.131 29.910,52.131 C38.993,52.131 46.382,44.742 46.382,35.660 C46.382,26.577 38.993,19.188 29.910,19.188 Z" id="path-1" class="cls-3" fill-rule="evenodd"/>
    <path d="M29.910,62.991 C14.839,62.991 2.578,50.730 2.578,35.660 C2.578,20.589 14.839,8.328 29.910,8.328 C44.981,8.328 57.242,20.589 57.242,35.660 C57.242,50.730 44.981,62.991 29.910,62.991 ZM29.910,11.328 C16.493,11.328 5.578,22.243 5.578,35.660 C5.578,49.076 16.493,59.991 29.910,59.991 C43.327,59.991 54.242,49.076 54.242,35.660 C54.242,22.243 43.327,11.328 29.910,11.328 Z" id="path-2" class="cls-3" fill-rule="evenodd"/>
    <path d="M29.625,44.031 C28.797,44.031 28.125,43.360 28.125,42.531 C28.125,42.531 28.125,31.338 28.125,31.338 C28.125,31.338 26.285,33.425 26.285,33.425 C25.775,34.079 24.726,34.195 24.073,33.687 C23.420,33.177 23.250,32.235 23.759,31.581 C23.759,31.581 28.041,26.049 28.041,26.049 C28.436,25.544 29.309,25.345 29.912,25.553 C30.518,25.761 31.125,26.331 31.125,26.972 C31.125,26.972 31.125,42.531 31.125,42.531 C31.125,43.360 30.453,44.031 29.625,44.031 Z" id="path-3" class="cls-3" fill-rule="evenodd"/>
    <path d="M34.698,44.531 C34.698,44.531 22.698,44.531 22.698,44.531 C21.870,44.531 21.198,43.860 21.198,43.031 C21.198,42.203 21.870,41.531 22.698,41.531 C22.698,41.531 34.698,41.531 34.698,41.531 C35.526,41.531 36.198,42.203 36.198,43.031 C36.198,43.860 35.526,44.531 34.698,44.531 Z" id="path-4" class="cls-3" fill-rule="evenodd"/>
    <path d="M46.258,17.160 C45.899,17.160 45.541,17.033 45.254,16.775 C44.639,16.221 44.589,15.272 45.143,14.657 C45.143,14.657 54.627,4.119 54.627,4.119 C55.184,3.502 56.131,3.454 56.746,4.007 C57.361,4.562 57.411,5.510 56.857,6.126 C56.857,6.126 47.373,16.664 47.373,16.664 C47.076,16.993 46.668,17.160 46.258,17.160 Z" id="path-5" class="cls-3" fill-rule="evenodd"/>
    <path d="M35.227,11.328 C34.856,11.328 34.487,11.192 34.197,10.918 C33.595,10.350 33.567,9.400 34.136,8.798 C34.136,8.798 42.004,0.462 42.004,0.462 C42.573,-0.141 43.521,-0.168 44.124,0.401 C44.727,0.969 44.754,1.919 44.185,2.521 C44.185,2.521 36.317,10.857 36.317,10.857 C36.022,11.170 35.625,11.328 35.227,11.328 Z" id="path-6" class="cls-3" fill-rule="evenodd"/>
    <path d="M10.987,17.160 C10.577,17.160 10.169,16.993 9.872,16.664 C9.872,16.664 0.388,6.126 0.388,6.126 C-0.166,5.510 -0.116,4.562 0.499,4.007 C1.116,3.455 2.062,3.502 2.618,4.119 C2.618,4.119 12.103,14.657 12.103,14.657 C12.656,15.272 12.606,16.221 11.991,16.775 C11.704,17.033 11.346,17.160 10.987,17.160 Z" id="path-7" class="cls-3" fill-rule="evenodd"/>
    <path d="M22.019,11.328 C21.620,11.328 21.223,11.170 20.928,10.857 C20.928,10.857 13.059,2.521 13.059,2.521 C12.490,1.919 12.518,0.969 13.120,0.401 C13.720,-0.167 14.672,-0.141 15.240,0.461 C15.240,0.461 23.109,8.798 23.109,8.798 C23.678,9.400 23.650,10.350 23.048,10.918 C22.759,11.192 22.389,11.328 22.019,11.328 Z" id="path-8" class="cls-3" fill-rule="evenodd"/>
  </g>
</svg>
