<svg xmlns="http://www.w3.org/2000/svg" xmlns:xlink="http://www.w3.org/1999/xlink" preserveAspectRatio="xMidYMid" width="61" height="63" viewBox="0 0 61 63">
  <defs>
    <style>

      .cls-3 {
        fill: #000000;
      }
    </style>
  </defs>
  <g id="group-70svg">
    <path d="M30.851,63.031 C30.851,63.031 19.262,63.031 19.262,63.031 C8.773,63.031 -0.000,55.288 -0.000,46.462 C-0.000,46.462 -0.000,26.531 -0.000,26.531 C-0.000,19.335 13.198,16.781 24.500,16.781 C35.802,16.781 49.000,19.335 49.000,26.531 C49.000,26.531 49.000,29.031 49.000,29.031 C49.000,29.031 51.351,29.031 51.351,29.031 C56.608,29.031 61.000,33.580 61.000,39.613 C61.000,39.613 61.000,44.594 61.000,44.594 C61.000,50.642 56.694,55.031 51.351,55.031 C51.351,55.031 46.445,55.031 46.445,55.031 C43.227,59.005 37.594,63.031 30.851,63.031 ZM24.500,19.781 C12.444,19.781 3.000,22.746 3.000,26.531 C3.000,26.531 3.000,46.462 3.000,46.462 C3.000,53.563 10.527,60.031 19.262,60.031 C19.262,60.031 30.851,60.031 30.851,60.031 C36.835,60.031 41.951,56.045 44.515,52.631 C44.515,52.631 44.964,52.031 44.964,52.031 C44.964,52.031 51.351,52.031 51.351,52.031 C55.015,52.031 58.000,48.973 58.000,44.594 C58.000,44.594 58.000,39.613 58.000,39.613 C58.000,35.221 54.956,32.031 51.351,32.031 C51.351,32.031 46.000,32.031 46.000,32.031 C46.000,32.031 46.000,26.531 46.000,26.531 C46.000,22.746 36.556,19.781 24.500,19.781 Z" id="path-1" class="cls-3" fill-rule="evenodd"/>
    <path d="M46.000,50.452 C46.000,50.452 46.000,34.031 46.000,34.031 C46.000,34.031 50.314,34.031 50.314,34.031 C53.276,34.031 56.000,37.516 56.000,40.514 C56.000,40.514 56.000,44.512 56.000,44.512 C56.000,47.671 53.475,50.442 50.595,50.442 C50.595,50.442 46.000,50.452 46.000,50.452 ZM49.000,37.031 C49.000,37.031 49.000,47.446 49.000,47.446 C49.000,47.446 50.592,47.442 50.592,47.442 C51.678,47.442 53.000,46.090 53.000,44.512 C53.000,44.512 53.000,40.514 53.000,40.514 C53.000,38.786 51.259,37.031 50.314,37.031 C50.314,37.031 49.000,37.031 49.000,37.031 Z" id="path-2" class="cls-3" fill-rule="evenodd"/>
    <path d="M24.853,35.397 C16.464,35.397 6.988,33.637 5.554,28.692 C5.554,28.692 5.433,28.274 5.433,28.274 C5.433,28.274 5.554,27.856 5.554,27.856 C6.988,22.912 16.464,21.151 24.853,21.151 C33.242,21.151 42.718,22.912 44.151,27.856 C44.151,27.856 44.272,28.274 44.272,28.274 C44.272,28.274 44.151,28.692 44.151,28.692 C42.718,33.637 33.242,35.397 24.853,35.397 ZM8.621,28.274 C9.883,30.367 15.990,32.397 24.853,32.397 C33.715,32.397 39.822,30.367 41.084,28.274 C39.822,26.182 33.715,24.151 24.853,24.151 C15.990,24.151 9.883,26.182 8.621,28.274 Z" id="path-3" class="cls-3" fill-rule="evenodd"/>
    <path d="M32.917,30.017 C32.269,30.017 31.673,29.595 31.479,28.942 C30.804,26.658 25.072,6.455 31.922,0.367 C32.540,-0.184 33.489,-0.127 34.039,0.491 C34.590,1.111 34.533,2.059 33.914,2.609 C29.307,6.704 32.671,22.392 34.356,28.091 C34.591,28.886 34.138,29.720 33.344,29.955 C33.201,29.997 33.059,30.017 32.917,30.017 Z" id="path-4" class="cls-3" fill-rule="evenodd"/>
    <path d="M14.970,30.017 C14.322,30.017 13.726,29.595 13.532,28.942 C12.856,26.658 7.126,6.455 13.975,0.367 C14.594,-0.184 15.543,-0.127 16.092,0.491 C16.643,1.111 16.587,2.059 15.967,2.609 C11.360,6.704 14.725,22.392 16.409,28.092 C16.644,28.886 16.190,29.720 15.396,29.955 C15.254,29.997 15.111,30.017 14.970,30.017 Z" id="path-5" class="cls-3" fill-rule="evenodd"/>
    <path d="M24.472,30.017 C23.856,30.017 23.279,29.636 23.060,29.022 C22.373,27.104 16.552,10.141 23.584,4.975 C24.251,4.484 25.189,4.628 25.681,5.295 C26.171,5.963 26.027,6.902 25.359,7.392 C20.932,10.644 24.341,23.695 25.884,28.012 C26.163,28.791 25.757,29.649 24.978,29.929 C24.810,29.988 24.640,30.017 24.472,30.017 Z" id="path-6" class="cls-3" fill-rule="evenodd"/>
  </g>
</svg>
