<svg xmlns="http://www.w3.org/2000/svg" xmlns:xlink="http://www.w3.org/1999/xlink" preserveAspectRatio="xMidYMid" width="63" height="59" viewBox="0 0 63 59">
  <defs>
    <style>

      .cls-3 {
        fill: #000000;
      }
    </style>
  </defs>
  <g id="group-31svg">
    <path d="M61.073,52.036 C61.073,52.036 1.073,52.036 1.073,52.036 C0.245,52.036 -0.000,51.363 -0.000,50.535 C-0.000,50.535 -0.000,26.458 -0.000,26.458 C-0.000,23.406 1.964,21.014 5.015,21.014 C5.015,21.014 9.015,21.014 9.015,21.014 C12.080,21.014 15.000,23.456 15.000,26.458 C15.000,26.458 15.000,38.026 15.000,38.026 C15.000,38.026 48.000,38.026 48.000,38.026 C48.000,38.026 48.000,26.458 48.000,26.458 C48.000,23.406 49.964,21.014 53.015,21.014 C53.015,21.014 57.015,21.014 57.015,21.014 C60.080,21.014 63.000,23.456 63.000,26.458 C63.000,26.458 63.000,50.535 63.000,50.535 C63.000,51.363 61.901,52.036 61.073,52.036 ZM3.000,49.034 C3.000,49.034 60.000,49.034 60.000,49.034 C60.000,49.034 60.000,26.458 60.000,26.458 C60.000,25.112 58.426,24.016 57.015,24.016 C57.015,24.016 53.015,24.016 53.015,24.016 C51.646,24.016 51.000,25.088 51.000,26.458 C51.000,26.458 51.000,39.527 51.000,39.527 C51.000,40.356 49.901,41.028 49.073,41.028 C49.073,41.028 13.073,41.028 13.073,41.028 C12.245,41.028 12.000,40.356 12.000,39.527 C12.000,39.527 12.000,26.458 12.000,26.458 C12.000,25.112 10.426,24.016 9.015,24.016 C9.015,24.016 5.015,24.016 5.015,24.016 C3.645,24.016 3.000,25.088 3.000,26.458 C3.000,26.458 3.000,49.034 3.000,49.034 Z" id="path-1" class="cls-3" fill-rule="evenodd"/>
    <path d="M49.073,41.028 C49.073,41.028 13.073,41.028 13.073,41.028 C12.245,41.028 12.000,40.356 12.000,39.527 C12.000,39.527 12.000,26.085 12.000,26.085 C12.000,24.945 10.592,24.016 9.386,24.016 C9.386,24.016 8.073,24.016 8.073,24.016 C7.245,24.016 7.000,23.344 7.000,22.515 C7.000,22.515 7.000,5.443 7.000,5.443 C7.000,2.391 8.964,-0.000 12.015,-0.000 C12.015,-0.000 49.015,-0.000 49.015,-0.000 C52.080,-0.000 55.000,2.442 55.000,5.443 C55.000,5.443 55.000,21.935 55.000,21.935 C55.000,22.764 54.328,23.436 53.500,23.436 C52.121,23.436 51.000,24.558 51.000,25.938 C51.000,25.938 51.000,39.527 51.000,39.527 C51.000,40.356 49.901,41.028 49.073,41.028 ZM15.000,38.026 C15.000,38.026 48.000,38.026 48.000,38.026 C48.000,38.026 48.000,25.938 48.000,25.938 C48.000,23.423 49.000,21.297 52.000,20.642 C52.000,20.642 52.000,5.443 52.000,5.443 C52.000,4.097 50.426,3.002 49.015,3.002 C49.015,3.002 12.015,3.002 12.015,3.002 C10.645,3.002 10.000,4.074 10.000,5.443 C10.000,5.443 10.000,21.017 10.000,21.017 C12.000,21.114 15.000,23.350 15.000,26.085 C15.000,26.085 15.000,38.026 15.000,38.026 Z" id="path-2" class="cls-3" fill-rule="evenodd"/>
    <path d="M43.073,34.023 C43.073,34.023 19.073,34.023 19.073,34.023 C18.245,34.023 18.000,33.351 18.000,32.522 C18.000,32.522 18.000,25.333 18.000,25.333 C18.000,24.951 18.000,23.935 16.573,23.935 C15.744,23.935 15.000,23.264 15.000,22.435 C15.000,22.435 15.000,12.448 15.000,12.448 C15.000,9.396 16.964,7.005 20.015,7.005 C20.015,7.005 41.015,7.005 41.015,7.005 C44.080,7.005 47.000,9.447 47.000,12.448 C47.000,12.448 47.000,22.435 47.000,22.435 C47.000,23.264 46.328,23.936 45.500,23.936 C45.274,23.954 45.000,24.075 45.000,24.832 C45.000,24.832 45.000,32.522 45.000,32.522 C45.000,33.351 43.901,34.023 43.073,34.023 ZM21.000,31.021 C21.000,31.021 42.000,31.021 42.000,31.021 C42.000,31.021 42.000,24.832 42.000,24.832 C42.000,22.905 43.000,21.806 44.000,21.293 C44.000,21.293 44.000,12.448 44.000,12.448 C44.000,11.102 42.426,10.007 41.015,10.007 C41.015,10.007 20.015,10.007 20.015,10.007 C18.645,10.007 18.000,11.079 18.000,12.448 C18.000,12.448 18.000,21.132 18.000,21.132 C19.000,21.609 21.000,22.959 21.000,25.333 C21.000,25.333 21.000,31.021 21.000,31.021 Z" id="path-3" class="cls-3" fill-rule="evenodd"/>
    <path d="M10.000,56.539 C10.000,57.368 9.328,58.040 8.500,58.040 C8.500,58.040 3.500,58.040 3.500,58.040 C2.672,58.040 2.000,57.368 2.000,56.539 C2.000,56.539 2.000,50.535 2.000,50.535 C2.000,49.706 2.672,49.034 3.500,49.034 C3.500,49.034 8.500,49.034 8.500,49.034 C9.328,49.034 10.000,49.706 10.000,50.535 C10.000,50.535 10.000,56.539 10.000,56.539 ZM5.000,55.038 C5.000,55.038 7.000,55.038 7.000,55.038 C7.000,55.038 7.000,52.036 7.000,52.036 C7.000,52.036 5.000,52.036 5.000,52.036 C5.000,52.036 5.000,55.038 5.000,55.038 Z" id="path-4" class="cls-3" fill-rule="evenodd"/>
    <path d="M61.000,56.539 C61.000,57.368 60.328,58.040 59.500,58.040 C59.500,58.040 54.500,58.040 54.500,58.040 C53.672,58.040 53.000,57.368 53.000,56.539 C53.000,56.539 53.000,50.535 53.000,50.535 C53.000,49.706 53.672,49.034 54.500,49.034 C54.500,49.034 59.500,49.034 59.500,49.034 C60.328,49.034 61.000,49.706 61.000,50.535 C61.000,50.535 61.000,56.539 61.000,56.539 ZM56.000,55.038 C56.000,55.038 58.000,55.038 58.000,55.038 C58.000,55.038 58.000,52.036 58.000,52.036 C58.000,52.036 56.000,52.036 56.000,52.036 C56.000,52.036 56.000,55.038 56.000,55.038 Z" id="path-5" class="cls-3" fill-rule="evenodd"/>
  </g>
</svg>
