<svg xmlns="http://www.w3.org/2000/svg" xmlns:xlink="http://www.w3.org/1999/xlink" preserveAspectRatio="xMidYMid" width="60" height="63" viewBox="0 0 60 63">
  <defs>
    <style>

      .cls-3 {
        fill: #000000;
      }
    </style>
  </defs>
  <g id="group-14svg">
    <path d="M53.579,63.049 C53.578,63.049 53.578,63.049 53.578,63.049 C52.372,63.049 51.218,62.652 50.242,61.900 C50.188,61.858 50.137,61.813 50.089,61.764 C50.089,61.764 35.178,46.629 35.178,46.629 C34.845,46.316 34.487,46.115 34.234,46.115 C33.639,46.115 32.687,47.425 32.490,49.559 C32.291,51.705 31.313,57.461 31.271,57.705 C31.232,57.933 31.142,58.149 31.006,58.336 C30.505,59.025 29.933,59.171 29.541,59.171 C21.351,59.171 13.733,55.895 8.094,49.947 C2.457,44.004 -0.409,36.208 0.020,27.996 C0.802,13.104 13.070,0.827 27.952,0.046 C44.977,-0.850 59.103,12.749 59.104,29.588 C59.104,29.588 59.084,57.555 59.084,57.555 C59.082,60.585 56.612,63.049 53.579,63.049 ZM52.145,59.575 C52.575,59.884 53.069,60.047 53.578,60.047 C53.579,60.047 53.579,60.047 53.579,60.047 C54.810,60.047 56.083,59.114 56.084,57.553 C56.084,57.553 56.103,29.588 56.103,29.588 C56.103,14.456 43.420,2.244 28.108,3.044 C14.740,3.746 3.718,14.775 3.017,28.154 C2.630,35.534 5.206,42.540 10.270,47.881 C15.096,52.970 21.532,55.882 28.490,56.148 C28.786,54.362 29.363,50.785 29.503,49.283 C29.837,45.650 31.783,43.113 34.234,43.113 C35.290,43.113 36.312,43.575 37.275,44.484 C37.275,44.484 52.145,59.575 52.145,59.575 Z" id="path-1" class="cls-3" fill-rule="evenodd"/>
    <path d="M40.443,29.937 C37.449,29.937 35.013,27.499 35.013,24.502 C35.013,21.506 37.449,19.068 40.443,19.068 C43.437,19.068 45.874,21.506 45.874,24.502 C45.874,27.499 43.437,29.937 40.443,29.937 ZM40.443,22.070 C39.104,22.070 38.013,23.161 38.013,24.502 C38.013,25.844 39.104,26.935 40.443,26.935 C41.783,26.935 42.874,25.844 42.874,24.502 C42.874,23.161 41.783,22.070 40.443,22.070 Z" id="path-2" class="cls-3" fill-rule="evenodd"/>
    <path d="M15.136,29.937 C12.142,29.937 9.705,27.499 9.705,24.502 C9.705,21.506 12.142,19.068 15.136,19.068 C18.130,19.068 20.566,21.506 20.566,24.502 C20.566,27.499 18.130,29.937 15.136,29.937 ZM15.136,22.070 C13.796,22.070 12.705,23.161 12.705,24.502 C12.705,25.844 13.796,26.935 15.136,26.935 C16.476,26.935 17.566,25.844 17.566,24.502 C17.566,23.161 16.476,22.070 15.136,22.070 Z" id="path-3" class="cls-3" fill-rule="evenodd"/>
    <path d="M19.218,43.825 C16.224,43.825 13.787,41.387 13.787,38.391 C13.787,35.394 16.224,32.956 19.218,32.956 C22.212,32.956 24.648,35.394 24.648,38.391 C24.648,41.387 22.212,43.825 19.218,43.825 ZM19.218,35.958 C17.878,35.958 16.787,37.049 16.787,38.391 C16.787,39.732 17.878,40.823 19.218,40.823 C20.558,40.823 21.648,39.732 21.648,38.391 C21.648,37.049 20.558,35.958 19.218,35.958 Z" id="path-4" class="cls-3" fill-rule="evenodd"/>
    <path d="M28.197,22.585 C25.203,22.585 22.767,20.147 22.767,17.150 C22.767,14.153 25.203,11.715 28.197,11.715 C31.192,11.715 33.629,14.153 33.629,17.150 C33.629,20.147 31.192,22.585 28.197,22.585 ZM28.197,14.717 C26.857,14.717 25.767,15.808 25.767,17.150 C25.767,18.491 26.857,19.583 28.197,19.583 C29.538,19.583 30.629,18.491 30.629,17.150 C30.629,15.808 29.538,14.717 28.197,14.717 Z" id="path-5" class="cls-3" fill-rule="evenodd"/>
    <path d="M29.014,35.656 C26.020,35.656 23.583,33.218 23.583,30.221 C23.583,27.224 26.020,24.786 29.014,24.786 C32.009,24.786 34.445,27.224 34.445,30.221 C34.445,33.218 32.009,35.656 29.014,35.656 ZM29.014,27.789 C27.674,27.789 26.583,28.880 26.583,30.221 C26.583,31.562 27.674,32.654 29.014,32.654 C30.354,32.654 31.445,31.562 31.445,30.221 C31.445,28.880 30.354,27.789 29.014,27.789 Z" id="path-6" class="cls-3" fill-rule="evenodd"/>
    <path d="M48.386,48.059 C45.392,48.059 42.955,45.621 42.955,42.624 C42.955,39.627 45.392,37.190 48.386,37.190 C51.380,37.190 53.816,39.627 53.816,42.624 C53.816,45.621 51.380,48.059 48.386,48.059 ZM48.386,40.192 C47.046,40.192 45.955,41.283 45.955,42.624 C45.955,43.965 47.046,45.057 48.386,45.057 C49.726,45.057 50.816,43.965 50.816,42.624 C50.816,41.283 49.726,40.192 48.386,40.192 Z" id="path-7" class="cls-3" fill-rule="evenodd"/>
  </g>
</svg>
