<svg xmlns="http://www.w3.org/2000/svg" xmlns:xlink="http://www.w3.org/1999/xlink" preserveAspectRatio="xMidYMid" width="64" height="65" viewBox="0 0 64 65">
  <defs>
    <style>

      .cls-3 {
        fill: #000000;
      }
    </style>
  </defs>
  <g id="group-73svg">
    <path d="M52.691,64.754 C51.863,64.754 51.191,64.082 51.191,63.254 C51.191,53.676 43.398,45.883 33.820,45.883 C24.241,45.883 16.448,53.676 16.448,63.254 C16.448,64.082 15.776,64.754 14.948,64.754 C14.120,64.754 13.448,64.082 13.448,63.254 C13.448,52.021 22.587,42.883 33.820,42.883 C45.053,42.883 54.191,52.021 54.191,63.254 C54.191,64.082 53.520,64.754 52.691,64.754 Z" id="path-1" class="cls-3" fill-rule="evenodd"/>
    <path d="M33.820,45.322 C27.304,45.322 22.003,40.021 22.003,33.506 C22.003,26.990 27.304,21.689 33.820,21.689 C40.336,21.689 45.637,26.990 45.637,33.506 C45.637,40.021 40.336,45.322 33.820,45.322 ZM33.820,24.689 C28.958,24.689 25.003,28.644 25.003,33.506 C25.003,38.367 28.958,42.322 33.820,42.322 C38.682,42.322 42.637,38.367 42.637,33.506 C42.637,28.644 38.682,24.689 33.820,24.689 Z" id="path-2" class="cls-3" fill-rule="evenodd"/>
    <path d="M12.823,61.000 C12.823,61.000 1.502,61.000 1.502,61.000 C0.674,61.000 0.002,60.328 0.002,59.500 C0.002,49.755 7.297,42.406 16.972,42.406 C20.059,42.406 22.970,43.185 25.624,44.721 C26.341,45.135 26.586,46.053 26.172,46.769 C25.757,47.487 24.839,47.731 24.122,47.316 C21.931,46.049 19.524,45.406 16.972,45.406 C9.511,45.406 3.769,50.723 3.073,58.000 C3.073,58.000 12.823,58.000 12.823,58.000 C13.651,58.000 14.323,58.672 14.323,59.500 C14.323,60.328 13.651,61.000 12.823,61.000 Z" id="path-3" class="cls-3" fill-rule="evenodd"/>
    <path d="M17.097,44.739 C11.568,44.739 7.071,40.242 7.071,34.715 C7.071,29.186 11.568,24.689 17.097,24.689 C19.774,24.689 22.292,25.732 24.185,27.625 C24.771,28.211 24.771,29.161 24.185,29.746 C23.600,30.332 22.650,30.332 22.064,29.746 C20.737,28.420 18.974,27.689 17.097,27.689 C13.223,27.689 10.071,30.840 10.071,34.715 C10.071,38.588 13.223,41.739 17.097,41.739 C19.400,41.739 21.560,40.607 22.875,38.711 C23.347,38.030 24.281,37.861 24.962,38.334 C25.643,38.807 25.812,39.740 25.340,40.422 C23.465,43.125 20.383,44.739 17.097,44.739 Z" id="path-4" class="cls-3" fill-rule="evenodd"/>
    <path d="M61.085,61.000 C61.085,61.000 52.823,61.000 52.823,61.000 C51.995,61.000 51.323,60.328 51.323,59.500 C51.323,58.672 51.995,58.000 52.823,58.000 C52.823,58.000 59.503,58.000 59.503,58.000 C58.788,51.519 53.517,46.128 46.915,45.414 C46.180,45.334 45.611,44.730 45.578,43.990 C45.544,43.252 46.054,42.598 46.779,42.452 C50.071,41.787 52.460,38.873 52.460,35.522 C52.460,31.748 48.875,28.435 44.789,28.435 C43.961,28.435 43.289,27.765 43.289,26.936 C43.289,26.107 43.961,25.435 44.789,25.435 C50.573,25.435 55.460,30.055 55.460,35.522 C55.460,38.702 53.951,41.605 51.559,43.469 C58.070,45.957 62.585,52.234 62.585,59.500 C62.585,60.328 61.913,61.000 61.085,61.000 Z" id="path-5" class="cls-3" fill-rule="evenodd"/>
    <path d="M45.289,26.387 C45.128,26.387 44.965,26.360 44.807,26.307 C44.197,26.100 43.788,25.527 43.789,24.885 C43.789,24.885 43.803,16.023 43.803,16.023 C43.799,15.629 43.795,13.728 43.789,3.545 C43.789,1.656 45.329,-0.000 47.085,-0.000 C47.085,-0.000 61.004,-0.000 61.004,-0.000 C62.690,-0.000 64.250,1.524 64.250,3.793 C64.250,3.793 64.250,15.916 64.250,15.916 C64.250,18.862 61.882,21.000 59.208,21.000 C59.208,21.000 50.157,21.000 50.157,21.000 C50.157,21.000 46.479,25.799 46.479,25.799 C46.190,26.176 45.746,26.387 45.289,26.387 ZM47.085,3.000 C47.001,3.029 46.789,3.303 46.789,3.545 C46.791,6.896 46.797,15.669 46.802,15.994 C46.802,15.994 46.795,20.455 46.795,20.455 C46.795,20.455 48.227,18.588 48.227,18.588 C48.511,18.217 48.950,18.000 49.417,18.000 C49.417,18.000 59.208,18.000 59.208,18.000 C60.707,18.000 61.250,16.405 61.250,15.916 C61.250,15.916 61.250,3.793 61.250,3.793 C61.250,3.438 60.767,3.164 60.712,3.000 C60.712,3.000 47.085,3.000 47.085,3.000 Z" id="path-6" class="cls-3" fill-rule="evenodd"/>
    <path d="M56.750,13.500 C55.922,13.500 55.250,12.828 55.250,12.000 C55.250,12.000 55.250,9.000 55.250,9.000 C55.250,8.172 55.922,7.500 56.750,7.500 C57.578,7.500 58.250,8.172 58.250,9.000 C58.250,9.000 58.250,12.000 58.250,12.000 C58.250,12.828 57.578,13.500 56.750,13.500 Z" id="path-7" class="cls-3" fill-rule="evenodd"/>
    <path d="M50.750,13.500 C49.922,13.500 49.250,12.828 49.250,12.000 C49.250,12.000 49.250,9.000 49.250,9.000 C49.250,8.172 49.922,7.500 50.750,7.500 C51.578,7.500 52.250,8.172 52.250,9.000 C52.250,9.000 52.250,12.000 52.250,12.000 C52.250,12.828 51.578,13.500 50.750,13.500 Z" id="path-8" class="cls-3" fill-rule="evenodd"/>
  </g>
</svg>
