<svg xmlns="http://www.w3.org/2000/svg" xmlns:xlink="http://www.w3.org/1999/xlink" preserveAspectRatio="xMidYMid" width="41" height="63" viewBox="0 0 41 63">
  <defs>
    <style>

      .cls-3 {
        fill: #000000;
      }
    </style>
  </defs>
  <g id="group-8svg">
    <path d="M20.526,47.338 C9.188,47.338 -0.013,29.510 -0.013,17.875 C-0.013,7.180 8.241,-0.006 20.526,-0.006 C32.811,-0.006 41.066,7.180 41.066,17.875 C41.066,29.510 31.864,47.338 20.526,47.338 ZM20.526,2.996 C11.796,2.996 2.987,7.597 2.987,17.875 C2.987,27.844 11.185,44.336 20.526,44.336 C29.868,44.336 38.066,27.844 38.066,17.875 C38.066,7.597 29.257,2.996 20.526,2.996 Z" id="path-1" class="cls-3" fill-rule="evenodd"/>
    <path d="M23.342,62.417 C23.342,62.417 17.325,62.417 17.325,62.417 C14.053,62.417 11.466,60.025 11.301,56.915 C11.301,56.915 9.084,51.475 9.084,51.475 C8.895,51.012 8.949,50.486 9.227,50.071 C9.506,49.656 9.973,49.407 10.473,49.407 C10.473,49.407 30.194,49.407 30.194,49.407 C30.694,49.407 31.161,49.656 31.439,50.071 C31.718,50.486 31.771,51.012 31.583,51.475 C31.583,51.475 29.366,56.915 29.366,56.915 C29.201,60.025 26.614,62.417 23.342,62.417 ZM12.704,52.409 C12.704,52.409 14.182,56.033 14.182,56.033 C14.255,56.213 14.293,56.406 14.293,56.600 C14.293,58.205 15.597,59.414 17.325,59.414 C17.325,59.414 23.342,59.414 23.342,59.414 C25.070,59.414 26.374,58.205 26.374,56.600 C26.374,56.406 26.412,56.213 26.485,56.033 C26.485,56.033 27.963,52.409 27.963,52.409 C27.963,52.409 12.704,52.409 12.704,52.409 Z" id="path-2" class="cls-3" fill-rule="evenodd"/>
    <path d="M26.854,58.414 C26.854,58.414 12.854,58.414 12.854,58.414 C12.026,58.414 11.354,57.742 11.354,56.913 C11.354,56.083 12.026,55.412 12.854,55.412 C12.854,55.412 26.854,55.412 26.854,55.412 C27.683,55.412 28.354,56.083 28.354,56.913 C28.354,57.742 27.683,58.414 26.854,58.414 Z" id="path-3" class="cls-3" fill-rule="evenodd"/>
    <path d="M20.248,46.453 C19.691,46.453 19.157,46.141 18.897,45.607 C18.536,44.861 18.847,43.963 19.592,43.601 C25.409,40.774 30.094,30.461 30.094,23.807 C30.094,22.977 30.766,22.306 31.594,22.306 C32.422,22.306 33.094,22.977 33.094,23.807 C33.094,31.629 27.880,42.911 20.902,46.301 C20.691,46.404 20.468,46.453 20.248,46.453 Z" id="path-4" class="cls-3" fill-rule="evenodd"/>
    <path d="M21.151,46.453 C20.932,46.453 20.708,46.404 20.497,46.301 C13.520,42.911 8.306,31.629 8.306,23.807 C8.306,22.977 8.978,22.306 9.806,22.306 C10.634,22.306 11.306,22.977 11.306,23.807 C11.306,30.461 15.990,40.774 21.808,43.601 C22.553,43.963 22.863,44.861 22.502,45.607 C22.242,46.141 21.708,46.453 21.151,46.453 Z" id="path-5" class="cls-3" fill-rule="evenodd"/>
  </g>
</svg>
