<svg xmlns="http://www.w3.org/2000/svg" xmlns:xlink="http://www.w3.org/1999/xlink" preserveAspectRatio="xMidYMid" width="64" height="64" viewBox="0 0 64 64">
  <defs>
    <style>

      .cls-3 {
        fill: #000000;
      }
    </style>
  </defs>
  <g id="group-20svg">
    <path d="M17.298,27.840 C16.706,27.840 16.145,27.488 15.908,26.906 C15.595,26.139 15.963,25.263 16.730,24.950 C16.730,24.950 21.286,23.092 21.286,23.092 C21.286,23.092 16.683,20.528 16.683,20.528 C15.959,20.125 15.698,19.211 16.102,18.488 C16.504,17.763 17.419,17.502 18.142,17.906 C18.142,17.906 25.476,21.990 25.476,21.990 C25.979,22.270 26.278,22.815 26.243,23.391 C26.209,23.967 25.847,24.472 25.312,24.690 C25.312,24.690 17.863,27.729 17.863,27.729 C17.678,27.804 17.486,27.840 17.298,27.840 Z" id="path-1" class="cls-3" fill-rule="evenodd"/>
    <path d="M45.370,28.577 C45.139,28.577 44.904,28.523 44.685,28.410 C44.685,28.410 37.350,24.635 37.350,24.635 C36.858,24.382 36.545,23.878 36.536,23.325 C36.527,22.772 36.823,22.259 37.307,21.990 C37.307,21.990 44.642,17.906 44.642,17.906 C45.365,17.502 46.278,17.763 46.682,18.488 C47.085,19.211 46.824,20.125 46.101,20.528 C46.101,20.528 41.214,23.249 41.214,23.249 C41.214,23.249 46.058,25.742 46.058,25.742 C46.794,26.121 47.084,27.026 46.705,27.763 C46.438,28.280 45.914,28.577 45.370,28.577 Z" id="path-2" class="cls-3" fill-rule="evenodd"/>
    <path d="M34.594,48.854 C34.594,48.854 29.137,48.854 29.137,48.854 C22.177,48.854 16.725,43.626 16.725,36.952 C16.725,36.128 17.390,35.458 18.214,35.452 C18.214,35.452 45.495,35.257 45.495,35.257 C45.914,35.252 46.278,35.410 46.562,35.692 C46.847,35.974 47.006,36.357 47.006,36.757 C47.006,43.540 41.554,48.854 34.594,48.854 ZM19.845,38.441 C20.551,42.757 24.310,45.853 29.137,45.853 C29.137,45.853 34.594,45.853 34.594,45.853 C39.338,45.853 43.157,42.626 43.882,38.269 C43.882,38.269 19.845,38.441 19.845,38.441 Z" id="path-3" class="cls-3" fill-rule="evenodd"/>
    <path d="M31.605,63.200 C14.187,63.200 0.016,49.026 0.016,31.603 C0.016,14.180 14.187,0.006 31.605,0.006 C49.023,0.006 63.194,14.180 63.194,31.603 C63.194,49.026 49.023,63.200 31.605,63.200 ZM31.605,3.007 C15.841,3.007 3.016,15.835 3.016,31.603 C3.016,47.371 15.841,60.200 31.605,60.200 C47.369,60.200 60.194,47.371 60.194,31.603 C60.194,15.835 47.369,3.007 31.605,3.007 Z" id="path-4" class="cls-3" fill-rule="evenodd"/>
  </g>
</svg>
