<svg xmlns="http://www.w3.org/2000/svg" xmlns:xlink="http://www.w3.org/1999/xlink" preserveAspectRatio="xMidYMid" width="48" height="63" viewBox="0 0 48 63">
  <defs>
    <style>

      .cls-3 {
        fill: #000000;
      }
    </style>
  </defs>
  <g id="group-45svg">
    <path d="M42.150,63.000 C42.150,63.000 5.150,63.000 5.150,63.000 C2.023,63.000 -0.000,60.661 -0.000,57.675 C-0.000,57.675 -0.000,21.744 -0.000,21.744 C-0.000,21.405 -0.099,21.076 0.112,20.811 C0.112,20.811 16.082,0.567 16.082,0.567 C16.367,0.209 16.692,-0.000 17.150,-0.000 C17.150,-0.000 42.150,-0.000 42.150,-0.000 C45.090,-0.000 48.000,2.599 48.000,5.675 C48.000,5.675 48.000,57.675 48.000,57.675 C48.000,60.661 45.191,63.000 42.150,63.000 ZM3.000,22.268 C3.000,22.268 3.000,57.675 3.000,57.675 C3.000,58.978 3.705,60.000 5.150,60.000 C5.150,60.000 42.150,60.000 42.150,60.000 C43.555,60.000 45.000,59.022 45.000,57.675 C45.000,57.675 45.000,5.675 45.000,5.675 C45.000,4.225 43.464,3.000 42.150,3.000 C42.150,3.000 17.875,3.000 17.875,3.000 C17.875,3.000 3.000,22.268 3.000,22.268 Z" id="path-1" class="cls-3" fill-rule="evenodd"/>
    <path d="M12.778,22.000 C12.778,22.000 2.003,22.000 2.003,22.000 C1.425,22.000 0.898,21.668 0.649,21.145 C0.400,20.624 0.474,20.005 0.837,19.556 C0.837,19.556 15.907,0.946 15.907,0.946 C16.307,0.451 17.190,0.265 17.787,0.476 C18.386,0.688 19.000,1.255 19.000,1.891 C19.000,1.891 19.000,16.194 19.000,16.194 C19.000,19.232 15.811,22.000 12.778,22.000 ZM5.147,19.000 C5.147,19.000 12.778,19.000 12.778,19.000 C14.137,19.000 16.000,17.558 16.000,16.194 C16.000,16.194 16.000,6.126 16.000,6.126 C16.000,6.126 5.147,19.000 5.147,19.000 Z" id="path-2" class="cls-3" fill-rule="evenodd"/>
    <path d="M21.573,44.000 C21.573,44.000 5.573,44.000 5.573,44.000 C4.745,44.000 4.073,43.328 4.073,42.500 C4.073,41.672 4.745,41.000 5.573,41.000 C5.573,41.000 21.573,41.000 21.573,41.000 C22.401,41.000 23.073,41.672 23.073,42.500 C23.073,43.328 22.401,44.000 21.573,44.000 Z" id="path-3" class="cls-3" fill-rule="evenodd"/>
    <path d="M21.573,37.000 C21.573,37.000 5.573,37.000 5.573,37.000 C4.745,37.000 4.073,36.328 4.073,35.500 C4.073,34.672 4.745,34.000 5.573,34.000 C5.573,34.000 21.573,34.000 21.573,34.000 C22.401,34.000 23.073,34.672 23.073,35.500 C23.073,36.328 22.401,37.000 21.573,37.000 Z" id="path-4" class="cls-3" fill-rule="evenodd"/>
    <path d="M21.573,30.000 C21.573,30.000 5.573,30.000 5.573,30.000 C4.745,30.000 4.073,29.328 4.073,28.500 C4.073,27.672 4.745,27.000 5.573,27.000 C5.573,27.000 21.573,27.000 21.573,27.000 C22.401,27.000 23.073,27.672 23.073,28.500 C23.073,29.328 22.401,30.000 21.573,30.000 Z" id="path-5" class="cls-3" fill-rule="evenodd"/>
  </g>
</svg>
