<svg xmlns="http://www.w3.org/2000/svg" xmlns:xlink="http://www.w3.org/1999/xlink" preserveAspectRatio="xMidYMid" width="40" height="64" viewBox="0 0 40 64">
  <defs>
    <style>

      .cls-3 {
        fill: #000000;
      }
    </style>
  </defs>
  <g id="group-25svg">
    <path d="M8.331,62.998 C7.947,62.998 7.563,62.852 7.270,62.559 C6.685,61.973 6.685,61.023 7.270,60.437 C7.270,60.437 36.210,31.498 36.210,31.498 C36.210,31.498 7.270,2.559 7.270,2.559 C6.685,1.973 6.685,1.023 7.270,0.437 C7.856,-0.148 8.806,-0.148 9.392,0.437 C9.392,0.437 38.678,29.724 38.678,29.724 C39.656,30.702 39.656,32.295 38.678,33.273 C38.678,33.273 9.392,62.559 9.392,62.559 C9.099,62.852 8.715,62.998 8.331,62.998 Z" id="path-1" class="cls-3" fill-rule="evenodd"/>
    <path d="M1.476,56.210 C1.092,56.210 0.708,56.063 0.415,55.771 C-0.171,55.185 -0.171,54.235 0.415,53.649 C0.415,53.649 22.566,31.498 22.566,31.498 C22.566,31.498 0.415,9.348 0.415,9.348 C-0.171,8.762 -0.171,7.812 0.415,7.227 C1.001,6.641 1.950,6.641 2.536,7.227 C2.536,7.227 25.748,30.437 25.748,30.437 C26.029,30.719 26.187,31.101 26.187,31.498 C26.187,31.895 26.029,32.277 25.748,32.559 C25.748,32.559 2.536,55.771 2.536,55.771 C2.243,56.063 1.859,56.210 1.476,56.210 Z" id="path-2" class="cls-3" fill-rule="evenodd"/>
  </g>
</svg>
