<svg xmlns="http://www.w3.org/2000/svg" xmlns:xlink="http://www.w3.org/1999/xlink" preserveAspectRatio="xMidYMid" width="59" height="62" viewBox="0 0 59 62">
  <defs>
    <style>

      .cls-3 {
        fill: #000000;
      }
    </style>
  </defs>
  <g id="group-68svg">
    <path d="M56.798,62.001 C55.970,62.001 55.298,61.329 55.298,60.501 C55.298,46.080 43.566,34.349 29.145,34.349 C14.725,34.349 2.993,46.080 2.993,60.501 C2.993,61.329 2.321,62.001 1.493,62.001 C0.665,62.001 -0.007,61.329 -0.007,60.501 C-0.007,44.426 13.071,31.349 29.145,31.349 C45.220,31.349 58.298,44.426 58.298,60.501 C58.298,61.329 57.626,62.001 56.798,62.001 Z" id="path-1" class="cls-3" fill-rule="evenodd"/>
    <path d="M28.921,33.234 C19.759,33.234 12.305,25.780 12.305,16.617 C12.305,7.455 19.759,0.001 28.921,0.001 C38.084,0.001 45.538,7.455 45.538,16.617 C45.538,25.780 38.084,33.234 28.921,33.234 ZM28.921,3.001 C21.413,3.001 15.305,9.109 15.305,16.617 C15.305,24.126 21.413,30.234 28.921,30.234 C36.430,30.234 42.538,24.126 42.538,16.617 C42.538,9.109 36.430,3.001 28.921,3.001 Z" id="path-2" class="cls-3" fill-rule="evenodd"/>
    <path d="M38.822,49.971 C38.822,49.971 36.249,49.056 36.249,49.056 C35.651,48.844 35.369,48.161 35.642,47.589 C35.642,47.589 36.813,45.123 36.813,45.123 C37.246,44.214 36.298,43.266 35.389,43.697 C35.389,43.697 32.922,44.870 32.922,44.870 C32.350,45.142 31.668,44.859 31.455,44.263 C31.455,44.263 30.541,41.689 30.541,41.689 C30.203,40.741 28.862,40.741 28.525,41.689 C28.525,41.689 27.610,44.263 27.610,44.263 C27.397,44.859 26.716,45.142 26.143,44.870 C26.143,44.870 23.677,43.697 23.677,43.697 C22.769,43.266 21.820,44.214 22.252,45.123 C22.252,45.123 23.425,47.589 23.425,47.589 C23.696,48.161 23.414,48.844 22.817,49.056 C22.817,49.056 20.244,49.971 20.244,49.971 C19.296,50.307 19.296,51.648 20.244,51.986 C20.244,51.986 22.817,52.901 22.817,52.901 C23.414,53.113 23.696,53.795 23.425,54.368 C23.425,54.368 22.252,56.834 22.252,56.834 C21.820,57.743 22.769,58.691 23.677,58.259 C23.677,58.259 26.143,57.087 26.143,57.087 C26.716,56.814 27.397,57.097 27.610,57.694 C27.610,57.694 28.525,60.267 28.525,60.267 C28.862,61.216 30.203,61.216 30.541,60.267 C30.541,60.267 31.455,57.694 31.455,57.694 C31.668,57.097 32.350,56.814 32.922,57.087 C32.922,57.087 35.389,58.259 35.389,58.259 C36.298,58.691 37.246,57.743 36.813,56.834 C36.813,56.834 35.642,54.368 35.642,54.368 C35.369,53.795 35.651,53.113 36.249,52.901 C36.249,52.901 38.822,51.986 38.822,51.986 C39.769,51.648 39.769,50.307 38.822,49.971 ZM29.449,55.278 C27.068,55.278 25.138,53.349 25.138,50.967 C25.138,48.586 27.068,46.656 29.449,46.656 C31.830,46.656 33.761,48.586 33.761,50.967 C33.761,53.349 31.830,55.278 29.449,55.278 Z" id="path-3" class="cls-3" fill-rule="evenodd"/>
  </g>
</svg>
